<mxfile host="Electron" agent="Mozilla/5.0 (Macintosh; Intel Mac OS X 10_15_7) AppleWebKit/537.36 (KHTML, like Gecko) draw.io/26.0.16 Chrome/132.0.6834.196 Electron/34.2.0 Safari/537.36" version="26.0.16">
  <diagram name="Page-1" id="bTywa-UCEF78WLRK5d2n">
    <mxGraphModel dx="2413" dy="1428" grid="1" gridSize="5" guides="0" tooltips="1" connect="1" arrows="1" fold="1" page="1" pageScale="1" pageWidth="1169" pageHeight="827" math="0" shadow="0">
      <root>
        <mxCell id="0" />
        <mxCell id="1" parent="0" />
        <mxCell id="6EtCR4fkRvI6MiytGtVW-148" value="Zynq-7000 SoC" style="rounded=0;whiteSpace=wrap;html=1;fontColor=light-dark(#ffffff, #ededed);fillColor=light-dark(#626466, #ededed);fontFamily=VictorMono Nerd Font;strokeColor=none;fontSize=20;labelPosition=center;verticalLabelPosition=top;align=center;verticalAlign=bottom;spacing=-28;spacingLeft=-900;" vertex="1" parent="1">
          <mxGeometry x="-320" y="145" width="1120" height="895" as="geometry" />
        </mxCell>
        <mxCell id="6EtCR4fkRvI6MiytGtVW-79" value="&lt;div&gt;Processing System (PS)&lt;/div&gt;" style="rounded=0;whiteSpace=wrap;html=1;fontColor=light-dark(#ffffff, #ededed);fillColor=light-dark(#111112, #ededed);fontFamily=VictorMono Nerd Font;strokeColor=none;fontSize=18;spacingLeft=-550;spacingBottom=0;labelPosition=center;verticalLabelPosition=top;align=center;verticalAlign=bottom;spacing=-32;" vertex="1" parent="1">
          <mxGeometry x="-300" y="180" width="1080" height="620" as="geometry" />
        </mxCell>
        <mxCell id="6EtCR4fkRvI6MiytGtVW-69" value="Programmable Logic (PL)" style="rounded=0;whiteSpace=wrap;html=1;fontColor=light-dark(#ffffff, #ededed);fillColor=light-dark(#3d3f40, #ededed);fontFamily=VictorMono Nerd Font;strokeColor=none;fontSize=18;spacingLeft=-550;spacingBottom=-179;labelPosition=center;verticalLabelPosition=middle;align=center;verticalAlign=middle;" vertex="1" parent="1">
          <mxGeometry x="-300" y="800" width="1080" height="220" as="geometry" />
        </mxCell>
        <mxCell id="6EtCR4fkRvI6MiytGtVW-26" value="2x SPI" style="rounded=0;whiteSpace=wrap;html=1;fontColor=light-dark(#ffffff, #ededed);fillColor=light-dark(#26282b, #ededed);fontFamily=VictorMono Nerd Font;strokeColor=none;fontSize=14;" vertex="1" parent="1">
          <mxGeometry x="-179.38" y="300" width="180" height="40" as="geometry" />
        </mxCell>
        <mxCell id="6EtCR4fkRvI6MiytGtVW-30" value="" style="endArrow=block;startArrow=block;html=1;rounded=0;startFill=1;endFill=1;strokeColor=light-dark(#00849f, #ededed);strokeWidth=2;fontFamily=VictorMono Nerd Font;" edge="1" parent="1">
          <mxGeometry width="50" height="50" relative="1" as="geometry">
            <mxPoint x="150" y="820" as="sourcePoint" />
            <mxPoint x="150" y="780" as="targetPoint" />
          </mxGeometry>
        </mxCell>
        <mxCell id="6EtCR4fkRvI6MiytGtVW-31" value="MPCore" style="rounded=0;whiteSpace=wrap;html=1;fontColor=light-dark(#ffffff, #ededed);fillColor=light-dark(#626466, #ededed);fontFamily=VictorMono Nerd Font;strokeColor=none;fontSize=16;labelPosition=center;verticalLabelPosition=top;align=center;verticalAlign=bottom;spacing=-28;" vertex="1" parent="1">
          <mxGeometry x="140" y="360" width="540" height="340" as="geometry" />
        </mxCell>
        <mxCell id="6EtCR4fkRvI6MiytGtVW-32" value="NEON SIMD and FPU" style="rounded=0;whiteSpace=wrap;html=1;fontColor=light-dark(#ffffff, #ededed);fillColor=light-dark(#26282b, #ededed);fontFamily=VictorMono Nerd Font;strokeColor=none;fontSize=16;" vertex="1" parent="1">
          <mxGeometry x="160" y="400" width="245" height="40" as="geometry" />
        </mxCell>
        <mxCell id="6EtCR4fkRvI6MiytGtVW-33" value="ARM Cortex A9" style="rounded=0;whiteSpace=wrap;html=1;fontColor=light-dark(#ffffff, #ededed);fillColor=light-dark(#26282b, #ededed);fontFamily=VictorMono Nerd Font;strokeColor=none;fontSize=16;" vertex="1" parent="1">
          <mxGeometry x="160" y="450" width="245" height="80" as="geometry" />
        </mxCell>
        <mxCell id="6EtCR4fkRvI6MiytGtVW-34" value="Snoop Control Unit" style="rounded=0;whiteSpace=wrap;html=1;fontColor=light-dark(#ffffff, #ededed);fillColor=light-dark(#26282b, #ededed);fontFamily=VictorMono Nerd Font;strokeColor=none;fontSize=16;" vertex="1" parent="1">
          <mxGeometry x="160" y="540" width="500" height="40" as="geometry" />
        </mxCell>
        <mxCell id="6EtCR4fkRvI6MiytGtVW-35" value="512 KB L2 Cache" style="rounded=0;whiteSpace=wrap;html=1;fontColor=light-dark(#ffffff, #ededed);fillColor=light-dark(#26282b, #ededed);fontFamily=VictorMono Nerd Font;strokeColor=none;fontSize=16;" vertex="1" parent="1">
          <mxGeometry x="160" y="590" width="245" height="40" as="geometry" />
        </mxCell>
        <mxCell id="6EtCR4fkRvI6MiytGtVW-36" value="256 KB On-Chip Memory" style="rounded=0;whiteSpace=wrap;html=1;fontColor=light-dark(#ffffff, #ededed);fillColor=light-dark(#26282b, #ededed);fontFamily=VictorMono Nerd Font;strokeColor=none;fontSize=16;" vertex="1" parent="1">
          <mxGeometry x="415" y="590" width="245" height="40" as="geometry" />
        </mxCell>
        <mxCell id="6EtCR4fkRvI6MiytGtVW-37" value="GIC" style="rounded=0;whiteSpace=wrap;html=1;fontColor=light-dark(#ffffff, #ededed);fillColor=light-dark(#26282b, #ededed);fontFamily=VictorMono Nerd Font;strokeColor=none;fontSize=16;" vertex="1" parent="1">
          <mxGeometry x="160" y="640" width="60" height="40" as="geometry" />
        </mxCell>
        <mxCell id="6EtCR4fkRvI6MiytGtVW-38" value="JTAG and Trace" style="rounded=0;whiteSpace=wrap;html=1;fontColor=light-dark(#ffffff, #ededed);fillColor=light-dark(#26282b, #ededed);fontFamily=VictorMono Nerd Font;strokeColor=none;fontSize=16;" vertex="1" parent="1">
          <mxGeometry x="230" y="640" width="135" height="40" as="geometry" />
        </mxCell>
        <mxCell id="6EtCR4fkRvI6MiytGtVW-39" value="Configuration" style="rounded=0;whiteSpace=wrap;html=1;fontColor=light-dark(#ffffff, #ededed);fillColor=light-dark(#26282b, #ededed);fontFamily=VictorMono Nerd Font;strokeColor=none;fontSize=16;" vertex="1" parent="1">
          <mxGeometry x="375" y="640" width="135" height="40" as="geometry" />
        </mxCell>
        <mxCell id="6EtCR4fkRvI6MiytGtVW-40" value="Timers" style="rounded=0;whiteSpace=wrap;html=1;fontColor=light-dark(#ffffff, #ededed);fillColor=light-dark(#26282b, #ededed);fontFamily=VictorMono Nerd Font;strokeColor=none;fontSize=16;" vertex="1" parent="1">
          <mxGeometry x="520" y="640" width="70" height="40" as="geometry" />
        </mxCell>
        <mxCell id="6EtCR4fkRvI6MiytGtVW-42" value="DMA" style="rounded=0;whiteSpace=wrap;html=1;fontColor=light-dark(#ffffff, #ededed);fillColor=light-dark(#26282b, #ededed);fontFamily=VictorMono Nerd Font;strokeColor=none;fontSize=16;" vertex="1" parent="1">
          <mxGeometry x="600" y="640" width="60" height="40" as="geometry" />
        </mxCell>
        <mxCell id="6EtCR4fkRvI6MiytGtVW-43" value="NEON SIMD and FPU" style="rounded=0;whiteSpace=wrap;html=1;fontColor=light-dark(#ffffff, #ededed);fillColor=light-dark(#26282b, #ededed);fontFamily=VictorMono Nerd Font;strokeColor=none;fontSize=16;" vertex="1" parent="1">
          <mxGeometry x="415" y="400" width="245" height="40" as="geometry" />
        </mxCell>
        <mxCell id="6EtCR4fkRvI6MiytGtVW-44" value="ARM Cortex A9" style="rounded=0;whiteSpace=wrap;html=1;fontColor=light-dark(#ffffff, #ededed);fillColor=light-dark(#26282b, #ededed);fontFamily=VictorMono Nerd Font;strokeColor=none;fontSize=16;" vertex="1" parent="1">
          <mxGeometry x="415" y="450" width="245" height="80" as="geometry" />
        </mxCell>
        <mxCell id="6EtCR4fkRvI6MiytGtVW-45" value="AMBA Interconnect" style="rounded=0;whiteSpace=wrap;html=1;fontColor=light-dark(#ffffff, #ededed);fillColor=light-dark(#626466, #ededed);fontFamily=VictorMono Nerd Font;strokeColor=none;fontSize=16;" vertex="1" parent="1">
          <mxGeometry x="60" y="280" width="420" height="40" as="geometry" />
        </mxCell>
        <mxCell id="6EtCR4fkRvI6MiytGtVW-46" value="" style="rounded=0;whiteSpace=wrap;html=1;fontColor=light-dark(#ffffff, #ededed);fillColor=light-dark(#626466, #ededed);fontFamily=VictorMono Nerd Font;strokeColor=none;fontSize=16;" vertex="1" parent="1">
          <mxGeometry x="60" y="280" width="40" height="500" as="geometry" />
        </mxCell>
        <mxCell id="6EtCR4fkRvI6MiytGtVW-47" value="AMBA Interconnect" style="rounded=0;whiteSpace=wrap;html=1;fontColor=light-dark(#ffffff, #ededed);fillColor=light-dark(#626466, #ededed);fontFamily=VictorMono Nerd Font;strokeColor=none;fontSize=16;" vertex="1" parent="1">
          <mxGeometry x="60" y="740" width="200" height="40" as="geometry" />
        </mxCell>
        <mxCell id="6EtCR4fkRvI6MiytGtVW-48" value="AMBA Interconnect" style="rounded=0;whiteSpace=wrap;html=1;fontColor=light-dark(#ffffff, #ededed);fillColor=light-dark(#626466, #ededed);fontFamily=VictorMono Nerd Font;strokeColor=none;fontSize=16;" vertex="1" parent="1">
          <mxGeometry x="520" y="280" width="240" height="40" as="geometry" />
        </mxCell>
        <mxCell id="6EtCR4fkRvI6MiytGtVW-49" value="" style="rounded=0;whiteSpace=wrap;html=1;fontColor=light-dark(#ffffff, #ededed);fillColor=light-dark(#626466, #ededed);fontFamily=VictorMono Nerd Font;strokeColor=none;fontSize=16;" vertex="1" parent="1">
          <mxGeometry x="720" y="280" width="40" height="500" as="geometry" />
        </mxCell>
        <mxCell id="6EtCR4fkRvI6MiytGtVW-50" value="AMBA Interconnect" style="rounded=0;whiteSpace=wrap;html=1;fontColor=light-dark(#ffffff, #ededed);fillColor=light-dark(#626466, #ededed);fontFamily=VictorMono Nerd Font;strokeColor=none;fontSize=16;" vertex="1" parent="1">
          <mxGeometry x="480" y="740" width="280" height="40" as="geometry" />
        </mxCell>
        <mxCell id="6EtCR4fkRvI6MiytGtVW-52" value="Security&lt;div&gt;AES, SHA, RSA&lt;/div&gt;" style="rounded=0;whiteSpace=wrap;html=1;fontColor=light-dark(#ffffff, #ededed);fillColor=light-dark(#26282b, #ededed);fontFamily=VictorMono Nerd Font;strokeColor=none;fontSize=14;" vertex="1" parent="1">
          <mxGeometry x="280" y="740" width="120" height="80" as="geometry" />
        </mxCell>
        <mxCell id="6EtCR4fkRvI6MiytGtVW-53" value="Flash Controller" style="rounded=0;whiteSpace=wrap;html=1;fontColor=light-dark(#ffffff, #ededed);fillColor=light-dark(#26282b, #ededed);fontFamily=VictorMono Nerd Font;strokeColor=none;fontSize=14;" vertex="1" parent="1">
          <mxGeometry x="120" y="200" width="260" height="40" as="geometry" />
        </mxCell>
        <mxCell id="6EtCR4fkRvI6MiytGtVW-54" value="Multiport DRAM Controller" style="rounded=0;whiteSpace=wrap;html=1;fontColor=light-dark(#ffffff, #ededed);fillColor=light-dark(#26282b, #ededed);fontFamily=VictorMono Nerd Font;strokeColor=none;fontSize=14;" vertex="1" parent="1">
          <mxGeometry x="440" y="200" width="260" height="40" as="geometry" />
        </mxCell>
        <mxCell id="6EtCR4fkRvI6MiytGtVW-55" value="2x I2C" style="rounded=0;whiteSpace=wrap;html=1;fontColor=light-dark(#ffffff, #ededed);fillColor=light-dark(#26282b, #ededed);fontFamily=VictorMono Nerd Font;strokeColor=none;fontSize=14;" vertex="1" parent="1">
          <mxGeometry x="-179.38" y="360" width="180" height="40" as="geometry" />
        </mxCell>
        <mxCell id="6EtCR4fkRvI6MiytGtVW-56" value="2x UART" style="rounded=0;whiteSpace=wrap;html=1;fontColor=light-dark(#ffffff, #ededed);fillColor=light-dark(#26282b, #ededed);fontFamily=VictorMono Nerd Font;strokeColor=none;fontSize=14;" vertex="1" parent="1">
          <mxGeometry x="-179.38" y="480" width="180" height="40" as="geometry" />
        </mxCell>
        <mxCell id="6EtCR4fkRvI6MiytGtVW-57" value="2x CAN" style="rounded=0;whiteSpace=wrap;html=1;fontColor=light-dark(#ffffff, #ededed);fillColor=light-dark(#26282b, #ededed);fontFamily=VictorMono Nerd Font;strokeColor=none;fontSize=14;" vertex="1" parent="1">
          <mxGeometry x="-179.38" y="420" width="180" height="40" as="geometry" />
        </mxCell>
        <mxCell id="6EtCR4fkRvI6MiytGtVW-58" value="GPIO" style="rounded=0;whiteSpace=wrap;html=1;fontColor=light-dark(#ffffff, #ededed);fillColor=light-dark(#26282b, #ededed);fontFamily=VictorMono Nerd Font;strokeColor=none;fontSize=14;" vertex="1" parent="1">
          <mxGeometry x="-179.38" y="540" width="180" height="40" as="geometry" />
        </mxCell>
        <mxCell id="6EtCR4fkRvI6MiytGtVW-59" value="2x SDIO with DMA" style="rounded=0;whiteSpace=wrap;html=1;fontColor=light-dark(#ffffff, #ededed);fillColor=light-dark(#26282b, #ededed);fontFamily=VictorMono Nerd Font;strokeColor=none;fontSize=14;" vertex="1" parent="1">
          <mxGeometry x="-179.38" y="600" width="180" height="40" as="geometry" />
        </mxCell>
        <mxCell id="6EtCR4fkRvI6MiytGtVW-60" value="2x USB with DMA" style="rounded=0;whiteSpace=wrap;html=1;fontColor=light-dark(#ffffff, #ededed);fillColor=light-dark(#26282b, #ededed);fontFamily=VictorMono Nerd Font;strokeColor=none;fontSize=14;" vertex="1" parent="1">
          <mxGeometry x="-179.38" y="660" width="180" height="40" as="geometry" />
        </mxCell>
        <mxCell id="6EtCR4fkRvI6MiytGtVW-62" value="2x GigE with DMA" style="rounded=0;whiteSpace=wrap;html=1;fontColor=light-dark(#ffffff, #ededed);fillColor=light-dark(#26282b, #ededed);fontFamily=VictorMono Nerd Font;strokeColor=none;fontSize=14;" vertex="1" parent="1">
          <mxGeometry x="-179.38" y="720" width="180" height="40" as="geometry" />
        </mxCell>
        <mxCell id="6EtCR4fkRvI6MiytGtVW-63" value="Processor I/O Mux" style="rounded=0;whiteSpace=wrap;html=1;fontColor=light-dark(#ffffff, #ededed);fillColor=light-dark(#007d96, #ededed);fontFamily=VictorMono Nerd Font;strokeColor=none;fontSize=14;rotation=270;" vertex="1" parent="1">
          <mxGeometry x="-549.37" y="470.01" width="580" height="40" as="geometry" />
        </mxCell>
        <mxCell id="6EtCR4fkRvI6MiytGtVW-64" value="XADC&lt;div&gt;2x ADC MUX&lt;/div&gt;&lt;div&gt;Thermal Sensor&lt;/div&gt;" style="rounded=0;whiteSpace=wrap;html=1;fontColor=light-dark(#ffffff, #ededed);fillColor=light-dark(#26282b, #ededed);fontFamily=VictorMono Nerd Font;strokeColor=none;fontSize=14;" vertex="1" parent="1">
          <mxGeometry x="-280" y="840" width="180" height="60" as="geometry" />
        </mxCell>
        <mxCell id="6EtCR4fkRvI6MiytGtVW-65" value="PCIe Gen 2&lt;div&gt;1-8 Lanes&lt;/div&gt;" style="rounded=0;whiteSpace=wrap;html=1;fontColor=light-dark(#ffffff, #ededed);fillColor=light-dark(#26282b, #ededed);fontFamily=VictorMono Nerd Font;strokeColor=none;fontSize=14;" vertex="1" parent="1">
          <mxGeometry x="580" y="840" width="180" height="60" as="geometry" />
        </mxCell>
        <mxCell id="6EtCR4fkRvI6MiytGtVW-66" value="AXI DMA" style="rounded=0;whiteSpace=wrap;html=1;fontColor=light-dark(#ffffff, #ededed);fillColor=light-dark(#26282b, #ededed);fontFamily=VictorMono Nerd Font;strokeColor=none;fontSize=14;" vertex="1" parent="1">
          <mxGeometry x="-40" y="840" width="600" height="40" as="geometry" />
        </mxCell>
        <mxCell id="6EtCR4fkRvI6MiytGtVW-67" value="Multi Standards I/O" style="rounded=0;whiteSpace=wrap;html=1;fontColor=light-dark(#ffffff, #ededed);fillColor=light-dark(#037c96, #ededed);fontFamily=VictorMono Nerd Font;strokeColor=none;fontSize=14;" vertex="1" parent="1">
          <mxGeometry x="-280" y="940" width="180" height="40" as="geometry" />
        </mxCell>
        <mxCell id="6EtCR4fkRvI6MiytGtVW-68" value="Serial Transceivers" style="rounded=0;whiteSpace=wrap;html=1;fontColor=light-dark(#ffffff, #ededed);fillColor=light-dark(#037c96, #ededed);fontFamily=VictorMono Nerd Font;strokeColor=none;fontSize=14;" vertex="1" parent="1">
          <mxGeometry x="580" y="940" width="180" height="40" as="geometry" />
        </mxCell>
        <mxCell id="6EtCR4fkRvI6MiytGtVW-70" value="Accelerator" style="rounded=0;whiteSpace=wrap;html=1;fontColor=light-dark(#ffffff, #ededed);fillColor=light-dark(#26282b, #ededed);fontFamily=VictorMono Nerd Font;strokeColor=none;fontSize=14;labelPosition=center;verticalLabelPosition=top;align=center;verticalAlign=bottom;spacing=-23;" vertex="1" parent="1">
          <mxGeometry x="-40" y="900" width="580" height="80" as="geometry" />
        </mxCell>
        <mxCell id="6EtCR4fkRvI6MiytGtVW-71" value="CNN" style="rounded=0;whiteSpace=wrap;html=1;fontColor=light-dark(#ffffff, #ededed);fillColor=light-dark(#626466, #ededed);fontFamily=VictorMono Nerd Font;strokeColor=none;fontSize=16;" vertex="1" parent="1">
          <mxGeometry x="140" y="930" width="80" height="40" as="geometry" />
        </mxCell>
        <mxCell id="6EtCR4fkRvI6MiytGtVW-72" value="ReLU" style="rounded=0;whiteSpace=wrap;html=1;fontColor=light-dark(#ffffff, #ededed);fillColor=light-dark(#626466, #ededed);fontFamily=VictorMono Nerd Font;strokeColor=none;fontSize=16;" vertex="1" parent="1">
          <mxGeometry x="260" y="930" width="80" height="40" as="geometry" />
        </mxCell>
        <mxCell id="6EtCR4fkRvI6MiytGtVW-73" value="Max Pooler" style="rounded=0;whiteSpace=wrap;html=1;fontColor=light-dark(#ffffff, #ededed);fillColor=light-dark(#626466, #ededed);fontFamily=VictorMono Nerd Font;strokeColor=none;fontSize=16;" vertex="1" parent="1">
          <mxGeometry x="380" y="930" width="140" height="40" as="geometry" />
        </mxCell>
        <mxCell id="6EtCR4fkRvI6MiytGtVW-74" value="EMIO" style="text;html=1;align=center;verticalAlign=middle;whiteSpace=wrap;rounded=0;fontFamily=VictorMono Nerd Font;fontSize=14;fontColor=#FFFFFF;" vertex="1" parent="1">
          <mxGeometry x="-255" y="800" width="60" height="30" as="geometry" />
        </mxCell>
        <mxCell id="6EtCR4fkRvI6MiytGtVW-80" value="" style="endArrow=block;startArrow=block;html=1;rounded=0;startFill=1;endFill=1;strokeColor=light-dark(#00849f, #ededed);strokeWidth=2;fontFamily=VictorMono Nerd Font;" edge="1" parent="1">
          <mxGeometry width="50" height="50" relative="1" as="geometry">
            <mxPoint x="180" y="820" as="sourcePoint" />
            <mxPoint x="180" y="780" as="targetPoint" />
          </mxGeometry>
        </mxCell>
        <mxCell id="6EtCR4fkRvI6MiytGtVW-81" value="" style="endArrow=block;startArrow=block;html=1;rounded=0;startFill=1;endFill=1;strokeColor=light-dark(#00849f, #ededed);strokeWidth=2;fontFamily=VictorMono Nerd Font;" edge="1" parent="1">
          <mxGeometry width="50" height="50" relative="1" as="geometry">
            <mxPoint x="210" y="820" as="sourcePoint" />
            <mxPoint x="210" y="780" as="targetPoint" />
          </mxGeometry>
        </mxCell>
        <mxCell id="6EtCR4fkRvI6MiytGtVW-85" value="" style="endArrow=block;startArrow=block;html=1;rounded=0;startFill=1;endFill=1;strokeColor=light-dark(#00849f, #ededed);strokeWidth=2;fontFamily=VictorMono Nerd Font;" edge="1" parent="1">
          <mxGeometry width="50" height="50" relative="1" as="geometry">
            <mxPoint x="569" y="820" as="sourcePoint" />
            <mxPoint x="569" y="780" as="targetPoint" />
          </mxGeometry>
        </mxCell>
        <mxCell id="6EtCR4fkRvI6MiytGtVW-86" value="" style="endArrow=block;startArrow=block;html=1;rounded=0;startFill=1;endFill=1;strokeColor=light-dark(#00849f, #ededed);strokeWidth=2;fontFamily=VictorMono Nerd Font;" edge="1" parent="1">
          <mxGeometry width="50" height="50" relative="1" as="geometry">
            <mxPoint x="599" y="820" as="sourcePoint" />
            <mxPoint x="599" y="780" as="targetPoint" />
          </mxGeometry>
        </mxCell>
        <mxCell id="6EtCR4fkRvI6MiytGtVW-87" value="" style="endArrow=block;startArrow=block;html=1;rounded=0;startFill=1;endFill=1;strokeColor=light-dark(#00849f, #ededed);strokeWidth=2;fontFamily=VictorMono Nerd Font;" edge="1" parent="1">
          <mxGeometry width="50" height="50" relative="1" as="geometry">
            <mxPoint x="240" y="840" as="sourcePoint" />
            <mxPoint x="240" y="780" as="targetPoint" />
          </mxGeometry>
        </mxCell>
        <mxCell id="6EtCR4fkRvI6MiytGtVW-88" value="" style="endArrow=block;startArrow=block;html=1;rounded=0;startFill=1;endFill=1;strokeColor=light-dark(#00849f, #ededed);strokeWidth=2;fontFamily=VictorMono Nerd Font;" edge="1" parent="1">
          <mxGeometry width="50" height="50" relative="1" as="geometry">
            <mxPoint x="509" y="840" as="sourcePoint" />
            <mxPoint x="509" y="780" as="targetPoint" />
          </mxGeometry>
        </mxCell>
        <mxCell id="6EtCR4fkRvI6MiytGtVW-89" value="" style="endArrow=block;startArrow=block;html=1;rounded=0;startFill=1;endFill=1;strokeColor=light-dark(#00849f, #ededed);strokeWidth=2;fontFamily=VictorMono Nerd Font;" edge="1" parent="1">
          <mxGeometry width="50" height="50" relative="1" as="geometry">
            <mxPoint x="420" y="815" as="sourcePoint" />
            <mxPoint x="420" y="700" as="targetPoint" />
          </mxGeometry>
        </mxCell>
        <mxCell id="6EtCR4fkRvI6MiytGtVW-90" value="" style="endArrow=block;startArrow=block;html=1;rounded=0;startFill=1;endFill=1;strokeColor=light-dark(#00849f, #ededed);strokeWidth=2;fontFamily=VictorMono Nerd Font;" edge="1" parent="1">
          <mxGeometry width="50" height="50" relative="1" as="geometry">
            <mxPoint x="-260" y="820" as="sourcePoint" />
            <mxPoint x="-260" y="780" as="targetPoint" />
          </mxGeometry>
        </mxCell>
        <mxCell id="6EtCR4fkRvI6MiytGtVW-91" value="" style="endArrow=block;startArrow=block;html=1;rounded=0;startFill=1;endFill=1;strokeColor=light-dark(#00849f, #ededed);strokeWidth=2;fontFamily=VictorMono Nerd Font;" edge="1" parent="1">
          <mxGeometry width="50" height="50" relative="1" as="geometry">
            <mxPoint x="180" y="930" as="sourcePoint" />
            <mxPoint x="180" y="880" as="targetPoint" />
          </mxGeometry>
        </mxCell>
        <mxCell id="6EtCR4fkRvI6MiytGtVW-92" value="" style="endArrow=block;startArrow=block;html=1;rounded=0;startFill=1;endFill=1;strokeColor=light-dark(#00849f, #ededed);strokeWidth=2;fontFamily=VictorMono Nerd Font;" edge="1" parent="1">
          <mxGeometry width="50" height="50" relative="1" as="geometry">
            <mxPoint x="450" y="930" as="sourcePoint" />
            <mxPoint x="450" y="880" as="targetPoint" />
          </mxGeometry>
        </mxCell>
        <mxCell id="6EtCR4fkRvI6MiytGtVW-93" value="" style="endArrow=block;startArrow=block;html=1;rounded=0;startFill=1;endFill=1;strokeColor=light-dark(#00849f, #ededed);strokeWidth=2;fontFamily=VictorMono Nerd Font;" edge="1" parent="1">
          <mxGeometry width="50" height="50" relative="1" as="geometry">
            <mxPoint x="380" y="950" as="sourcePoint" />
            <mxPoint x="340" y="950" as="targetPoint" />
          </mxGeometry>
        </mxCell>
        <mxCell id="6EtCR4fkRvI6MiytGtVW-94" value="" style="endArrow=block;startArrow=block;html=1;rounded=0;startFill=1;endFill=1;strokeColor=light-dark(#00849f, #ededed);strokeWidth=2;fontFamily=VictorMono Nerd Font;" edge="1" parent="1">
          <mxGeometry width="50" height="50" relative="1" as="geometry">
            <mxPoint x="260" y="950" as="sourcePoint" />
            <mxPoint x="220" y="950" as="targetPoint" />
          </mxGeometry>
        </mxCell>
        <mxCell id="6EtCR4fkRvI6MiytGtVW-95" value="GP AXI Ports" style="text;html=1;align=center;verticalAlign=middle;whiteSpace=wrap;rounded=0;fontFamily=VictorMono Nerd Font;fontSize=14;fontColor=#FFFFFF;" vertex="1" parent="1">
          <mxGeometry x="30" y="800" width="110" height="30" as="geometry" />
        </mxCell>
        <mxCell id="6EtCR4fkRvI6MiytGtVW-96" value="HP AXI Ports" style="text;html=1;align=center;verticalAlign=middle;whiteSpace=wrap;rounded=0;fontFamily=VictorMono Nerd Font;fontSize=14;fontColor=#FFFFFF;" vertex="1" parent="1">
          <mxGeometry x="609" y="800" width="110" height="30" as="geometry" />
        </mxCell>
        <mxCell id="6EtCR4fkRvI6MiytGtVW-97" value="ACP" style="text;html=1;align=center;verticalAlign=middle;whiteSpace=wrap;rounded=0;fontFamily=VictorMono Nerd Font;fontSize=14;fontColor=#FFFFFF;" vertex="1" parent="1">
          <mxGeometry x="420" y="800" width="40" height="30" as="geometry" />
        </mxCell>
        <mxCell id="6EtCR4fkRvI6MiytGtVW-98" value="" style="endArrow=block;startArrow=block;html=1;rounded=0;startFill=1;endFill=1;strokeColor=light-dark(#00849f, #ededed);strokeWidth=2;fontFamily=VictorMono Nerd Font;" edge="1" parent="1">
          <mxGeometry width="50" height="50" relative="1" as="geometry">
            <mxPoint x="460" y="840" as="sourcePoint" />
            <mxPoint x="460" y="700" as="targetPoint" />
          </mxGeometry>
        </mxCell>
        <mxCell id="6EtCR4fkRvI6MiytGtVW-99" value="IRQ" style="text;html=1;align=center;verticalAlign=middle;whiteSpace=wrap;rounded=0;fontFamily=VictorMono Nerd Font;fontSize=14;fontColor=#FFFFFF;" vertex="1" parent="1">
          <mxGeometry x="460" y="800" width="40" height="30" as="geometry" />
        </mxCell>
        <mxCell id="6EtCR4fkRvI6MiytGtVW-100" value="" style="endArrow=block;startArrow=block;html=1;rounded=0;startFill=1;endFill=1;strokeColor=light-dark(#00849f, #ededed);strokeWidth=2;fontFamily=VictorMono Nerd Font;" edge="1" parent="1">
          <mxGeometry width="50" height="50" relative="1" as="geometry">
            <mxPoint x="540" y="840" as="sourcePoint" />
            <mxPoint x="540" y="780" as="targetPoint" />
          </mxGeometry>
        </mxCell>
        <mxCell id="6EtCR4fkRvI6MiytGtVW-101" value="Configuration" style="rounded=0;whiteSpace=wrap;html=1;fontColor=light-dark(#ffffff, #ededed);fillColor=light-dark(#626466, #ededed);fontFamily=VictorMono Nerd Font;strokeColor=none;fontSize=16;" vertex="1" parent="1">
          <mxGeometry x="-20" y="930" width="140" height="40" as="geometry" />
        </mxCell>
        <mxCell id="6EtCR4fkRvI6MiytGtVW-102" value="" style="endArrow=block;startArrow=block;html=1;rounded=0;startFill=1;endFill=1;strokeColor=light-dark(#00849f, #ededed);strokeWidth=2;fontFamily=VictorMono Nerd Font;" edge="1" parent="1">
          <mxGeometry width="50" height="50" relative="1" as="geometry">
            <mxPoint x="50" y="930" as="sourcePoint" />
            <mxPoint x="50" y="880" as="targetPoint" />
          </mxGeometry>
        </mxCell>
        <mxCell id="6EtCR4fkRvI6MiytGtVW-104" value="" style="endArrow=block;startArrow=block;html=1;rounded=0;startFill=1;endFill=1;strokeColor=light-dark(#00849f, #ededed);strokeWidth=2;fontFamily=VictorMono Nerd Font;" edge="1" parent="1">
          <mxGeometry width="50" height="50" relative="1" as="geometry">
            <mxPoint x="-190" y="940" as="sourcePoint" />
            <mxPoint x="-190" y="900" as="targetPoint" />
          </mxGeometry>
        </mxCell>
        <mxCell id="6EtCR4fkRvI6MiytGtVW-105" value="" style="endArrow=block;startArrow=block;html=1;rounded=0;startFill=1;endFill=1;strokeColor=light-dark(#00849f, #ededed);strokeWidth=2;fontFamily=VictorMono Nerd Font;" edge="1" parent="1">
          <mxGeometry width="50" height="50" relative="1" as="geometry">
            <mxPoint x="670" y="940" as="sourcePoint" />
            <mxPoint x="670" y="900" as="targetPoint" />
          </mxGeometry>
        </mxCell>
        <mxCell id="6EtCR4fkRvI6MiytGtVW-106" value="" style="endArrow=block;startArrow=block;html=1;rounded=0;startFill=1;endFill=1;strokeColor=light-dark(#00849f, #ededed);strokeWidth=2;fontFamily=VictorMono Nerd Font;" edge="1" parent="1">
          <mxGeometry width="50" height="50" relative="1" as="geometry">
            <mxPoint x="283" y="360" as="sourcePoint" />
            <mxPoint x="283" y="320" as="targetPoint" />
          </mxGeometry>
        </mxCell>
        <mxCell id="6EtCR4fkRvI6MiytGtVW-109" value="" style="endArrow=block;startArrow=block;html=1;rounded=0;startFill=1;endFill=1;strokeColor=light-dark(#00849f, #ededed);strokeWidth=2;fontFamily=VictorMono Nerd Font;" edge="1" parent="1">
          <mxGeometry width="50" height="50" relative="1" as="geometry">
            <mxPoint x="500" y="360" as="sourcePoint" />
            <mxPoint x="500" y="240" as="targetPoint" />
          </mxGeometry>
        </mxCell>
        <mxCell id="6EtCR4fkRvI6MiytGtVW-110" value="" style="endArrow=block;startArrow=block;html=1;rounded=0;startFill=1;endFill=1;strokeColor=light-dark(#00849f, #ededed);strokeWidth=2;fontFamily=VictorMono Nerd Font;" edge="1" parent="1">
          <mxGeometry width="50" height="50" relative="1" as="geometry">
            <mxPoint x="460" y="280" as="sourcePoint" />
            <mxPoint x="460" y="240" as="targetPoint" />
          </mxGeometry>
        </mxCell>
        <mxCell id="6EtCR4fkRvI6MiytGtVW-111" value="" style="endArrow=block;startArrow=block;html=1;rounded=0;startFill=1;endFill=1;strokeColor=light-dark(#00849f, #ededed);strokeWidth=2;fontFamily=VictorMono Nerd Font;" edge="1" parent="1">
          <mxGeometry width="50" height="50" relative="1" as="geometry">
            <mxPoint x="595" y="280" as="sourcePoint" />
            <mxPoint x="595" y="240" as="targetPoint" />
          </mxGeometry>
        </mxCell>
        <mxCell id="6EtCR4fkRvI6MiytGtVW-112" value="" style="endArrow=block;startArrow=block;html=1;rounded=0;startFill=1;endFill=1;strokeColor=light-dark(#00849f, #ededed);strokeWidth=2;fontFamily=VictorMono Nerd Font;" edge="1" parent="1">
          <mxGeometry width="50" height="50" relative="1" as="geometry">
            <mxPoint x="655" y="280" as="sourcePoint" />
            <mxPoint x="655" y="240" as="targetPoint" />
          </mxGeometry>
        </mxCell>
        <mxCell id="6EtCR4fkRvI6MiytGtVW-113" value="" style="endArrow=block;startArrow=block;html=1;rounded=0;startFill=1;endFill=1;strokeColor=light-dark(#00849f, #ededed);strokeWidth=2;fontFamily=VictorMono Nerd Font;" edge="1" parent="1">
          <mxGeometry width="50" height="50" relative="1" as="geometry">
            <mxPoint x="250" y="280" as="sourcePoint" />
            <mxPoint x="250" y="240" as="targetPoint" />
          </mxGeometry>
        </mxCell>
        <mxCell id="6EtCR4fkRvI6MiytGtVW-124" value="" style="endArrow=block;startArrow=block;html=1;rounded=0;startFill=1;endFill=1;strokeColor=light-dark(#00849f, #ededed);strokeWidth=2;fontFamily=VictorMono Nerd Font;" edge="1" parent="1">
          <mxGeometry width="50" height="50" relative="1" as="geometry">
            <mxPoint x="155" y="740" as="sourcePoint" />
            <mxPoint x="155" y="700" as="targetPoint" />
          </mxGeometry>
        </mxCell>
        <mxCell id="6EtCR4fkRvI6MiytGtVW-125" value="" style="endArrow=block;startArrow=block;html=1;rounded=0;startFill=1;endFill=1;strokeColor=light-dark(#00849f, #ededed);strokeWidth=2;fontFamily=VictorMono Nerd Font;" edge="1" parent="1">
          <mxGeometry width="50" height="50" relative="1" as="geometry">
            <mxPoint x="185" y="740" as="sourcePoint" />
            <mxPoint x="185" y="700" as="targetPoint" />
          </mxGeometry>
        </mxCell>
        <mxCell id="6EtCR4fkRvI6MiytGtVW-126" value="" style="endArrow=block;startArrow=block;html=1;rounded=0;startFill=1;endFill=1;strokeColor=light-dark(#00849f, #ededed);strokeWidth=2;fontFamily=VictorMono Nerd Font;" edge="1" parent="1">
          <mxGeometry width="50" height="50" relative="1" as="geometry">
            <mxPoint x="215" y="740" as="sourcePoint" />
            <mxPoint x="215" y="700" as="targetPoint" />
          </mxGeometry>
        </mxCell>
        <mxCell id="6EtCR4fkRvI6MiytGtVW-127" value="" style="endArrow=block;startArrow=block;html=1;rounded=0;startFill=1;endFill=1;strokeColor=light-dark(#00849f, #ededed);strokeWidth=2;fontFamily=VictorMono Nerd Font;" edge="1" parent="1">
          <mxGeometry width="50" height="50" relative="1" as="geometry">
            <mxPoint x="245" y="740" as="sourcePoint" />
            <mxPoint x="245" y="700" as="targetPoint" />
          </mxGeometry>
        </mxCell>
        <mxCell id="6EtCR4fkRvI6MiytGtVW-128" value="" style="endArrow=block;startArrow=block;html=1;rounded=0;startFill=1;endFill=1;strokeColor=light-dark(#00849f, #ededed);strokeWidth=2;fontFamily=VictorMono Nerd Font;" edge="1" parent="1">
          <mxGeometry width="50" height="50" relative="1" as="geometry">
            <mxPoint x="140" y="529" as="sourcePoint" />
            <mxPoint x="100" y="529" as="targetPoint" />
          </mxGeometry>
        </mxCell>
        <mxCell id="6EtCR4fkRvI6MiytGtVW-129" value="" style="endArrow=block;startArrow=block;html=1;rounded=0;startFill=1;endFill=1;strokeColor=light-dark(#00849f, #ededed);strokeWidth=2;fontFamily=VictorMono Nerd Font;" edge="1" parent="1">
          <mxGeometry width="50" height="50" relative="1" as="geometry">
            <mxPoint x="60" y="320" as="sourcePoint" />
            <mxPoint y="320" as="targetPoint" />
          </mxGeometry>
        </mxCell>
        <mxCell id="6EtCR4fkRvI6MiytGtVW-130" value="" style="endArrow=block;startArrow=block;html=1;rounded=0;startFill=1;endFill=1;strokeColor=light-dark(#00849f, #ededed);strokeWidth=2;fontFamily=VictorMono Nerd Font;" edge="1" parent="1">
          <mxGeometry width="50" height="50" relative="1" as="geometry">
            <mxPoint x="60" y="380" as="sourcePoint" />
            <mxPoint y="380" as="targetPoint" />
          </mxGeometry>
        </mxCell>
        <mxCell id="6EtCR4fkRvI6MiytGtVW-131" value="" style="endArrow=block;startArrow=block;html=1;rounded=0;startFill=1;endFill=1;strokeColor=light-dark(#00849f, #ededed);strokeWidth=2;fontFamily=VictorMono Nerd Font;" edge="1" parent="1">
          <mxGeometry width="50" height="50" relative="1" as="geometry">
            <mxPoint x="60" y="440" as="sourcePoint" />
            <mxPoint y="440" as="targetPoint" />
          </mxGeometry>
        </mxCell>
        <mxCell id="6EtCR4fkRvI6MiytGtVW-132" value="" style="endArrow=block;startArrow=block;html=1;rounded=0;startFill=1;endFill=1;strokeColor=light-dark(#00849f, #ededed);strokeWidth=2;fontFamily=VictorMono Nerd Font;" edge="1" parent="1">
          <mxGeometry width="50" height="50" relative="1" as="geometry">
            <mxPoint x="60" y="500" as="sourcePoint" />
            <mxPoint y="500" as="targetPoint" />
          </mxGeometry>
        </mxCell>
        <mxCell id="6EtCR4fkRvI6MiytGtVW-133" value="" style="endArrow=block;startArrow=block;html=1;rounded=0;startFill=1;endFill=1;strokeColor=light-dark(#00849f, #ededed);strokeWidth=2;fontFamily=VictorMono Nerd Font;" edge="1" parent="1">
          <mxGeometry width="50" height="50" relative="1" as="geometry">
            <mxPoint x="60" y="560" as="sourcePoint" />
            <mxPoint y="560" as="targetPoint" />
          </mxGeometry>
        </mxCell>
        <mxCell id="6EtCR4fkRvI6MiytGtVW-134" value="" style="endArrow=block;startArrow=block;html=1;rounded=0;startFill=1;endFill=1;strokeColor=light-dark(#00849f, #ededed);strokeWidth=2;fontFamily=VictorMono Nerd Font;" edge="1" parent="1">
          <mxGeometry width="50" height="50" relative="1" as="geometry">
            <mxPoint x="60" y="620" as="sourcePoint" />
            <mxPoint y="620" as="targetPoint" />
          </mxGeometry>
        </mxCell>
        <mxCell id="6EtCR4fkRvI6MiytGtVW-135" value="" style="endArrow=block;startArrow=block;html=1;rounded=0;startFill=1;endFill=1;strokeColor=light-dark(#00849f, #ededed);strokeWidth=2;fontFamily=VictorMono Nerd Font;" edge="1" parent="1">
          <mxGeometry width="50" height="50" relative="1" as="geometry">
            <mxPoint x="60" y="680" as="sourcePoint" />
            <mxPoint y="680" as="targetPoint" />
          </mxGeometry>
        </mxCell>
        <mxCell id="6EtCR4fkRvI6MiytGtVW-136" value="" style="endArrow=block;startArrow=block;html=1;rounded=0;startFill=1;endFill=1;strokeColor=light-dark(#00849f, #ededed);strokeWidth=2;fontFamily=VictorMono Nerd Font;" edge="1" parent="1">
          <mxGeometry width="50" height="50" relative="1" as="geometry">
            <mxPoint x="60" y="740" as="sourcePoint" />
            <mxPoint y="740" as="targetPoint" />
          </mxGeometry>
        </mxCell>
        <mxCell id="6EtCR4fkRvI6MiytGtVW-138" value="" style="endArrow=block;startArrow=block;html=1;rounded=0;startFill=1;endFill=1;strokeColor=light-dark(#00849f, #ededed);strokeWidth=2;fontFamily=VictorMono Nerd Font;" edge="1" parent="1">
          <mxGeometry width="50" height="50" relative="1" as="geometry">
            <mxPoint x="-180" y="380" as="sourcePoint" />
            <mxPoint x="-240" y="380" as="targetPoint" />
          </mxGeometry>
        </mxCell>
        <mxCell id="6EtCR4fkRvI6MiytGtVW-139" value="" style="endArrow=block;startArrow=block;html=1;rounded=0;startFill=1;endFill=1;strokeColor=light-dark(#00849f, #ededed);strokeWidth=2;fontFamily=VictorMono Nerd Font;" edge="1" parent="1">
          <mxGeometry width="50" height="50" relative="1" as="geometry">
            <mxPoint x="-180" y="440" as="sourcePoint" />
            <mxPoint x="-240" y="440" as="targetPoint" />
          </mxGeometry>
        </mxCell>
        <mxCell id="6EtCR4fkRvI6MiytGtVW-140" value="" style="endArrow=block;startArrow=block;html=1;rounded=0;startFill=1;endFill=1;strokeColor=light-dark(#00849f, #ededed);strokeWidth=2;fontFamily=VictorMono Nerd Font;" edge="1" parent="1">
          <mxGeometry width="50" height="50" relative="1" as="geometry">
            <mxPoint x="-180" y="500" as="sourcePoint" />
            <mxPoint x="-240" y="500" as="targetPoint" />
          </mxGeometry>
        </mxCell>
        <mxCell id="6EtCR4fkRvI6MiytGtVW-141" value="" style="endArrow=block;startArrow=block;html=1;rounded=0;startFill=1;endFill=1;strokeColor=light-dark(#00849f, #ededed);strokeWidth=2;fontFamily=VictorMono Nerd Font;" edge="1" parent="1">
          <mxGeometry width="50" height="50" relative="1" as="geometry">
            <mxPoint x="-180" y="560" as="sourcePoint" />
            <mxPoint x="-240" y="560" as="targetPoint" />
          </mxGeometry>
        </mxCell>
        <mxCell id="6EtCR4fkRvI6MiytGtVW-142" value="" style="endArrow=block;startArrow=block;html=1;rounded=0;startFill=1;endFill=1;strokeColor=light-dark(#00849f, #ededed);strokeWidth=2;fontFamily=VictorMono Nerd Font;" edge="1" parent="1">
          <mxGeometry width="50" height="50" relative="1" as="geometry">
            <mxPoint x="-180" y="620" as="sourcePoint" />
            <mxPoint x="-240" y="620" as="targetPoint" />
          </mxGeometry>
        </mxCell>
        <mxCell id="6EtCR4fkRvI6MiytGtVW-143" value="" style="endArrow=block;startArrow=block;html=1;rounded=0;startFill=1;endFill=1;strokeColor=light-dark(#00849f, #ededed);strokeWidth=2;fontFamily=VictorMono Nerd Font;" edge="1" parent="1">
          <mxGeometry width="50" height="50" relative="1" as="geometry">
            <mxPoint x="-180" y="680" as="sourcePoint" />
            <mxPoint x="-240" y="680" as="targetPoint" />
          </mxGeometry>
        </mxCell>
        <mxCell id="6EtCR4fkRvI6MiytGtVW-144" value="" style="endArrow=block;startArrow=block;html=1;rounded=0;startFill=1;endFill=1;strokeColor=light-dark(#00849f, #ededed);strokeWidth=2;fontFamily=VictorMono Nerd Font;" edge="1" parent="1">
          <mxGeometry width="50" height="50" relative="1" as="geometry">
            <mxPoint x="-180" y="740" as="sourcePoint" />
            <mxPoint x="-240" y="740" as="targetPoint" />
          </mxGeometry>
        </mxCell>
        <mxCell id="6EtCR4fkRvI6MiytGtVW-146" value="" style="endArrow=block;startArrow=block;html=1;rounded=0;startFill=1;endFill=1;strokeColor=light-dark(#00849f, #ededed);strokeWidth=2;fontFamily=VictorMono Nerd Font;" edge="1" parent="1">
          <mxGeometry width="50" height="50" relative="1" as="geometry">
            <mxPoint x="120" y="220" as="sourcePoint" />
            <mxPoint x="-240" y="220" as="targetPoint" />
          </mxGeometry>
        </mxCell>
        <mxCell id="6EtCR4fkRvI6MiytGtVW-147" value="" style="endArrow=block;startArrow=block;html=1;rounded=0;startFill=1;endFill=1;strokeColor=light-dark(#00849f, #ededed);strokeWidth=2;fontFamily=VictorMono Nerd Font;" edge="1" parent="1">
          <mxGeometry width="50" height="50" relative="1" as="geometry">
            <mxPoint x="-180" y="320" as="sourcePoint" />
            <mxPoint x="-240" y="320" as="targetPoint" />
          </mxGeometry>
        </mxCell>
      </root>
    </mxGraphModel>
  </diagram>
</mxfile>
